<svg xmlns="http://www.w3.org/2000/svg" viewBox="0 0 1024 1024">
  <!-- Maskable icon: keep artwork inside safe zone (centered with padding). -->
  <rect width="1024" height="1024" rx="256" fill="#0b1220"/>
  <g transform="translate(128 128) scale(0.75)">
    <defs>
      <radialGradient id="bg" cx="70%" cy="30%" r="85%">
        <stop offset="0%" stop-color="#7dd3fc"/>
        <stop offset="55%" stop-color="#2563eb"/>
        <stop offset="100%" stop-color="#0b1220"/>
      </radialGradient>
      <linearGradient id="shield" x1="0" y1="0" x2="1" y2="1">
        <stop offset="0" stop-color="#dbeafe"/>
        <stop offset="1" stop-color="#93c5fd"/>
      </linearGradient>
      <filter id="softShadow" x="-20%" y="-20%" width="140%" height="140%">
        <feDropShadow dx="0" dy="18" stdDeviation="22" flood-color="#000" flood-opacity="0.35"/>
      </filter>
    </defs>

    <circle cx="512" cy="512" r="472" fill="url(#bg)"/>
    <circle cx="512" cy="512" r="472" fill="none" stroke="rgba(255,255,255,0.14)" stroke-width="16"/>

    <g filter="url(#softShadow)">
      <path d="M404 676c-61 0-112-44-123-101a120 120 0 0 1 98-143 171 171 0 0 1 332-18c66 6 119 62 119 132 0 72-58 130-130 130H404z"
            fill="rgba(255,255,255,0.30)"/>
    </g>

    <g filter="url(#softShadow)">
      <path d="M512 304c92 54 168 66 224 86v168c0 143-100 247-224 304-124-57-224-161-224-304V390c56-20 132-32 224-86z"
            fill="url(#shield)" stroke="rgba(255,255,255,0.55)" stroke-width="18" stroke-linejoin="round"/>
      <path d="M420 546l92-92 92 92" fill="none" stroke="#0b3b87" stroke-width="34" stroke-linecap="round" stroke-linejoin="round"/>
      <path d="M472 546V420" fill="none" stroke="#0b3b87" stroke-width="34" stroke-linecap="round"/>
      <path d="M552 546V420" fill="none" stroke="#0b3b87" stroke-width="34" stroke-linecap="round"/>
    </g>
  </g>
</svg>
